<svg width="769" height="769" viewBox="0 0 769 769" fill="none" xmlns="http://www.w3.org/2000/svg">
<path d="M768.2 384.14C767.46 347.82 748.84 315.88 720.74 296.83C736.61 265.37 736.86 226.81 717.93 194.01C699.3 161.74 666.55 142.72 631.99 140.22C630 105.04 610.94 71.52 578.15 52.58C545.88 33.95 508.01 33.85 476.83 48.97C457.52 19.5 424.25 0 386.38 0C385.63 0 384.89 0.06 384.13 0.07C347.81 0.81 315.88 19.43 296.83 47.53C265.37 31.66 226.81 31.41 194.01 50.34C161.74 68.97 142.72 101.72 140.22 136.28C105.04 138.27 71.52 157.33 52.58 190.12C33.95 222.39 33.85 260.26 48.97 291.44C19.5 310.75 0 344.02 0 381.89C0 382.64 0.06 383.39 0.07 384.14H0C0.74 420.46 19.36 452.4 47.46 471.45C31.59 502.91 31.34 541.47 50.27 574.27C68.9 606.54 101.65 625.56 136.21 628.06C138.2 663.24 157.26 696.76 190.05 715.7C222.32 734.33 260.19 734.43 291.37 719.31C310.68 748.78 343.95 768.28 381.82 768.28C382.57 768.28 383.31 768.22 384.07 768.21C420.39 767.47 452.32 748.85 471.37 720.75C502.83 736.62 541.39 736.87 574.19 717.94C606.46 699.31 625.48 666.56 627.98 632C663.16 630.01 696.68 610.95 715.62 578.16C734.25 545.89 734.35 508.02 719.23 476.84C748.7 457.53 768.2 424.26 768.2 386.39C768.2 385.64 768.14 384.89 768.13 384.14H768.2Z" fill="#15FF00"/>
</svg>
