<svg width="212" height="107" viewBox="0 0 212 107" fill="none" xmlns="http://www.w3.org/2000/svg">
<g clip-path="url(#clip0_57_794)">
<path d="M210.31 51V51.4145L210.32 51.4245V103.103L195.81 83.0537L195.511 82.64H195H29.26C13.6523 82.64 1 69.9877 1 54.38V29.26C1 13.6523 13.6523 1 29.26 1H182.05C197.658 1 210.31 13.6523 210.31 29.26V51Z" fill="#0D2D23" stroke="#3BFF29" stroke-width="2"/>
<path d="M176.843 33.9079C176.705 33.5025 176.171 33.4933 175.932 33.8895C175.416 34.7464 174.799 35.6494 173.997 35.6494C172.045 35.6401 171.777 31.9176 172.754 29.4667L175.95 19.8656C176.696 17.9583 176.245 16.8618 175.195 17.0185C174.292 17.1567 173.196 17.8662 172.118 20.9252C170.893 24.3621 170.93 26.0851 170.451 26.1588C169.668 26.2786 169.76 24.7491 167.365 25.1269C163.644 25.6981 161.332 29.5128 160.374 33.3274C159.794 34.3594 159.241 35.1057 158.339 35.2439C157.353 35.4006 156.893 34.9675 156.865 33.8987C156.828 32.3323 157.768 31.1713 157.74 29.5128C157.703 27.9464 156.81 26.7578 154.986 27.0434C153.669 27.2461 152.48 28.0938 151.394 29.393C150.454 30.5447 149.846 30.2591 149.818 29.0336C149.809 28.4071 149.616 27.8634 148.805 27.9924C147.7 28.1675 146.272 31.8163 145.351 35.6494C144.771 36.7458 144.034 37.4553 143.012 37.6212C141.694 37.8239 141.335 36.6168 142.312 34.1659C142.929 32.2401 143.693 31.1529 143.666 29.955C143.647 29.264 143.371 28.8309 142.588 28.9507C141.179 29.1718 140.994 30.3973 140.009 30.5447C139.226 30.6645 139.327 29.4575 136.923 29.826C133.137 30.4065 130.807 34.341 129.886 38.1187C129.287 39.1691 128.56 39.8418 127.546 39.9984C125.75 40.2748 125.953 38.4504 126.423 36.5523C127.058 33.8065 128.164 30.7382 129.739 26.9973C130.623 24.8781 130.19 23.9659 128.956 24.1594C126.524 24.5372 125.253 29.5496 122.416 39.1876C121.836 40.2195 121.218 41.012 120.325 41.1778C119.892 39.2889 118.253 37.0223 118.243 36.4233C118.216 35.1702 120.408 34.7372 120.353 33.7328C120.353 32.7193 119.45 31.8255 117.58 32.019C114.725 32.3138 111.998 37.2434 111.998 37.2434C111.418 38.2754 108.719 43.7485 107.623 42.9746C106.527 42.2006 108.259 39.2981 108.157 37.1605C108.084 35.5941 107.227 34.4054 105.403 34.6911C104.086 34.8938 102.898 35.7415 101.811 37.0407C100.872 38.1924 100.264 37.9068 100.236 36.6813C100.227 36.0548 100.033 35.5111 99.2227 35.6401C98.1174 35.8152 96.6897 39.464 95.7686 43.297C94.4607 45.6743 92.0566 47.1485 90.021 47.4618C88.3078 47.729 86.8893 47.3789 86.8709 46.2824C86.8709 45.877 87.1564 45.7296 87.3682 45.8309C88.0683 46.135 88.8788 46.0981 89.717 45.9691C92.6553 45.5176 94.4883 42.6521 94.4423 40.3578C94.3962 38.2846 93.1343 36.5892 90.3434 37.0223C86.3458 37.6396 83.7483 41.4358 82.9378 45.1952C82.9101 45.2228 82.8917 45.2596 82.8733 45.2965C81.5653 47.6737 79.1613 49.148 77.1257 49.4613C75.4124 49.7285 73.9939 49.3783 73.9755 48.2819C73.9755 47.8764 74.2611 47.729 74.4729 47.8304C75.1729 48.1344 75.9835 48.0976 76.8217 47.9686C79.76 47.5171 81.593 44.6515 81.5469 42.3572C81.5009 40.284 80.239 38.5886 77.4481 39.0217C73.4505 39.6391 70.853 43.4353 70.0424 47.1946C70.024 47.2222 69.9964 47.2591 69.978 47.296C69.3977 48.3279 68.845 49.0743 67.9424 49.2217C66.5976 49.4336 66.0725 48.8531 66.0541 47.9686C66.0173 46.0244 67.2792 44.5041 67.2423 42.7166C67.2055 41.0212 64.2856 39.4548 61.4671 39.8878C59.8459 40.1366 58.8327 41.8412 58.8604 43.122C58.8788 44.0434 59.1459 44.4488 59.5788 44.6331C59.7538 44.7068 59.8275 44.9095 59.763 45.1122C59.5696 45.748 59.1367 47.0564 58.7682 48.1897C58.3445 49.4889 56.2076 49.1296 56.2444 47.7751C56.2813 46.4206 56.7418 44.5686 57.3866 42.1821C58.2616 38.9756 54.1996 38.6992 53.6838 40.9659C53.1127 43.4998 52.7074 45.4716 52.1456 46.8813C49.8244 52.6954 46.4808 51.5437 46.6927 47.3881C46.9506 42.2282 51.8324 32.7469 61.6144 37.2895C62.4434 37.6765 63.4014 38.3767 64.2027 38.0542C66.2844 37.2157 65.5751 34.2304 60.4907 32.9036C49.7231 30.1025 37.8318 40.8092 40.199 51.7187C41.1477 56.0862 46.7387 59.1545 51.2613 52.2439C51.5653 51.7832 52.0627 52.0596 51.86 52.5204C50.3586 55.8559 48.277 60.9144 42.5662 60.4445C39.9226 60.2233 38.67 58.4174 38.6147 56.1599C38.6147 55.9388 38.3752 55.7821 38.0989 55.819C35.5567 56.1138 33.9355 58.5556 34 61.2277C34.0737 64.2683 35.8146 67.2353 39.7845 67.8618C46.3611 68.9122 52.0443 63.7155 54.172 57.2288C54.5588 56.0493 54.9365 54.8423 55.3049 53.6168C58.1787 53.9025 59.6341 51.5437 60.1591 49.9128C60.1591 49.9128 61.1631 46.4114 61.5407 45.3702C61.5868 45.232 61.7065 45.0569 61.9092 45.1307C62.5908 45.3702 63.0329 45.9691 63.0421 46.264C63.0698 47.7751 61.0341 51.0461 61.0986 53.967C61.1355 55.5702 62.0105 57.1366 64.4698 56.7588C66.5423 56.4363 68.0529 54.6027 69.1582 52.6309C69.4437 52.1149 70.1161 52.0873 70.3188 52.5756C71.0741 54.3816 72.6307 55.4965 75.1085 55.1187C77.577 54.7409 79.8705 53.0179 81.8969 50.0694C82.2285 49.5903 82.8825 49.6271 83.0391 50.1339C83.7115 52.1979 85.3142 53.5431 87.9946 53.1285C90.0578 52.806 92.0014 51.5529 93.7606 49.4336C94.1751 48.9361 94.8844 49.1296 94.9028 49.7469V49.7653C94.9304 51.083 95.7318 51.9399 97.1411 51.7187C99.2135 51.3962 99.5635 49.6087 99.5267 48.0054L99.4991 46.5957C99.4346 43.6011 101.102 40.5512 103.008 40.6802C103.23 40.6987 103.441 40.7816 103.58 40.9475C104.381 41.9426 102.585 44.6976 102.649 47.5908C102.686 49.3507 103.377 50.7512 105.265 50.4656C107.172 50.1708 108.461 48.245 109.769 46.0705C109.769 46.0705 113.721 39.1046 114.439 37.8331C114.697 37.3816 114.937 37.3447 115.158 37.7225C115.591 38.5057 115.848 39.2521 115.867 40.0076C115.895 41.2976 115.397 43.767 114.108 44.2277C113.426 44.4765 112.8 43.9881 112.533 43.3063C112.468 43.1312 112.219 43.1588 112.146 43.3523L111.796 44.2092C110.755 46.7708 112.431 49.1572 114.992 48.9361C118.704 48.6136 120.113 46.4206 121.504 44.329C121.504 44.458 121.504 44.5962 121.504 44.716C121.541 46.5681 122.287 47.8396 124.424 47.5079C126.202 47.2315 127.565 45.8494 128.615 44.2185C128.937 43.7209 129.6 43.7485 129.775 44.2645C130.254 45.6835 131.203 46.4667 132.612 46.2548C134.74 45.9231 136.499 43.6103 137.642 40.8737L137.761 40.8553C137.457 43.5182 138.369 45.361 140.433 45.0385C142.219 44.7621 143.491 43.1496 144.504 41.2331C144.495 41.5556 144.485 41.8504 144.495 42.1176C144.522 43.4353 145.324 44.2922 146.733 44.071C148.805 43.7485 149.155 41.961 149.118 40.3578L149.091 38.948C149.026 35.9534 150.694 32.9036 152.6 33.0325C152.821 33.051 153.033 33.1339 153.171 33.2998C153.973 34.2949 152.176 37.0499 152.241 39.9431C152.278 41.703 152.969 43.1036 154.857 42.8179C157.15 42.4678 158.753 40.2564 159.886 38.0634C160.07 40.3117 161.166 41.8412 163.368 41.5003C165.201 41.2147 166.896 38.9111 168.065 36.1746L168.185 36.1561C167.909 38.8098 168.388 43.1865 171.713 43.2602C175.176 43.3339 176.714 39.7957 176.982 35.8889C177.009 35.4651 177.009 34.4239 176.843 33.9079ZM89.3025 40.6065C90.2329 40.4591 90.6934 40.9935 90.7118 41.6846C90.7302 42.4678 90.0578 43.5458 88.8881 43.7301C87.9301 43.8775 87.4696 43.3523 87.4511 42.6613C87.4327 41.8136 88.1328 40.7908 89.3025 40.6065ZM76.4072 42.5968C77.3375 42.4494 77.7981 42.9838 77.8165 43.6748C77.8349 44.458 77.1625 45.5361 75.9927 45.7204C75.0348 45.8678 74.5742 45.3426 74.5558 44.6515C74.5374 43.8038 75.2374 42.7811 76.4072 42.5968ZM135.468 39.2797C134.538 39.4271 133.957 38.8835 133.93 37.8147C133.902 36.4325 134.86 34.7372 136.417 34.4976C137.374 34.3502 137.992 34.8846 138.01 35.9258C138.038 37.2434 137.024 39.0401 135.468 39.2797ZM165.956 34.5713C164.814 34.7464 164.381 34.0277 164.363 33.1155C164.335 31.7334 165.293 30.038 166.757 29.8168C167.927 29.6325 168.425 30.3144 168.443 31.2266C168.471 32.5442 167.457 34.341 165.956 34.5713Z" fill="#3BFF29"/>
</g>
<defs>
<clipPath id="clip0_57_794">
<rect width="211.31" height="106.18" fill="white"/>
</clipPath>
</defs>
</svg>
