<svg width="450" height="170" viewBox="0 0 450 170" fill="none" xmlns="http://www.w3.org/2000/svg">
<path d="M150.826 93.614L149.906 98.9179L151.881 98.6187L150.988 93.5902L150.826 93.614Z" fill="#3BFF29"/>
<path d="M207.438 85.0241L206.518 90.328L208.495 90.0288L207.602 84.9986L207.438 85.0241Z" fill="#3BFF29"/>
<path d="M341.8 63.6334L341.204 63.7235V72.4852L341.8 72.3951C342.801 72.2438 343.262 71.7627 343.262 70.6067V64.9798C343.262 63.7983 342.801 63.4822 341.8 63.6351V63.6334Z" fill="#3BFF29"/>
<path d="M231.497 81.3743L230.577 86.6765L232.552 86.3773L231.659 81.3488L231.497 81.3743Z" fill="#3BFF29"/>
<path d="M449.179 56.4681C448.19 53.5068 445.668 51.4566 442.599 51.1149C439.829 50.8089 437.079 51.9972 435.325 54.1953C435.312 52.1179 435.639 49.5714 436.539 47.2883L436.607 47.1183L446.392 17.5508C449.218 10.1101 447.574 5.73434 445.688 3.36969C443.646 0.807837 440.393 -0.405938 436.993 0.121051C428.624 1.42323 424.689 10.0574 422.465 16.4203C421.236 19.8985 420.397 22.8462 419.784 25.2414C417.968 24.7825 415.767 24.6516 413.061 25.0732C403.932 26.4909 396.149 32.8896 390.977 42.8378C390.484 39.0894 388.855 35.9036 386.28 33.7277C384.233 31.9971 380.653 30.1101 375.217 30.955C371.365 31.5534 367.699 33.3503 364.271 36.315C364.083 36.1246 363.886 35.941 363.678 35.7659C362.552 34.814 360.101 33.3061 356.342 33.8875C353.91 34.2649 350.772 35.6061 347.353 42.1714C346.702 40.5581 345.745 39.4583 344.894 38.7392C343.495 37.556 341.052 36.264 337.376 36.8369C333.748 37.3996 331.405 39.2135 329.923 40.6329C327.678 39.4974 324.645 38.814 320.057 39.5297C313.078 40.6142 306.784 44.6126 301.855 51.0928C300.825 52.446 299.902 53.84 299.075 55.2441C300.653 50.7222 302.623 45.6597 305.071 39.8119C306.031 37.5033 308.951 30.4773 305.001 25.391C302.908 22.6949 299.52 21.4879 295.704 22.0829C288.341 23.227 284.431 30.5351 281.847 36.774C280.002 41.2262 278.145 46.9347 276.079 53.7941C275.456 52.2131 274.474 50.78 273.171 49.5867C271.127 47.7133 267.396 45.6138 261.228 46.2581C249.893 47.4396 241.072 62.2259 239.245 65.5136C238.573 62.0542 236.949 59.149 234.537 57.1634C232.515 55.4974 228.985 53.6836 223.665 54.5115C219.813 55.1098 216.147 56.9084 212.718 59.8715C212.531 59.6811 212.333 59.4975 212.126 59.3224C211 58.3704 208.549 56.8591 204.79 57.4439C202.087 57.8638 198.514 59.472 194.653 68.1163C193.875 66.9705 192.957 65.9437 191.905 65.0546C189.349 62.894 184.805 60.548 177.67 61.6581C170.425 62.7835 163.869 66.6628 158.712 72.8728C157.875 73.8826 157.078 74.9519 156.327 76.0687C155.375 74.1716 154.09 72.5175 152.505 71.1762C149.95 69.0156 145.404 66.6713 138.269 67.7797C131.024 68.9051 124.468 72.7844 119.311 78.9944C117.516 81.155 115.916 83.5843 114.549 86.1937C114.554 85.9489 114.554 85.699 114.549 85.4491C114.475 81.8418 112.65 78.3484 109.411 75.6097C108.487 74.8295 107.471 74.124 106.381 73.4984C107.978 71.4227 108.784 68.8473 108.609 66.0661C108.428 63.2357 106.49 53.6445 89.104 49.0903C71.1655 44.3899 50.8015 50.3805 35.9605 64.7249C21.6462 78.5609 15.3449 97.2418 19.1041 114.699C19.4637 116.365 19.9802 117.971 20.6334 119.494C19.8519 119.362 19.0433 119.341 18.2331 119.44C7.5531 120.746 -0.280926 130.779 0.00772296 142.777C0.343636 156.809 9.43016 167.297 23.157 169.497C25.2569 169.834 27.35 170 29.4279 170C38.5499 170 47.3832 166.777 55.2764 160.513C63.8565 153.704 70.6169 143.712 74.3137 132.378C75.0716 130.055 75.7974 127.761 76.4844 125.526C78.8088 125.104 80.9982 124.247 83.0086 122.971C83.5876 126.82 85.3043 130.089 87.9696 132.343C90.2299 134.253 94.2473 136.324 100.567 135.341C106.244 134.459 111.355 131.051 115.82 125.182C120.086 129.497 126.151 131.365 133.095 130.287C140.676 129.109 147.657 124.848 153.917 117.594C155.113 119.091 156.498 120.373 158.049 121.405C162.034 124.06 167.027 125.014 172.495 124.164C178.372 123.251 183.912 120.463 189.034 115.855C189.461 116.372 189.932 116.848 190.445 117.281C193.082 119.51 196.635 120.412 200.441 119.819C205.352 119.056 209.216 116.297 211.321 112.052C211.628 111.431 211.898 110.784 212.131 110.105C212.973 111.537 213.935 112.582 214.825 113.334C216.763 114.971 220.147 116.759 225.274 115.96C231.995 114.916 236.602 110.02 240.086 104.968C243.411 109.429 248.821 111.788 254.592 111.29C260.992 110.734 266.267 108.62 270.718 104.825C271.128 104.475 271.523 104.118 271.905 103.754C272.053 103.894 272.205 104.028 272.36 104.159C274.403 105.886 278.052 107.756 283.824 106.86C288.651 106.111 293.067 103.544 297.009 99.2104C300.059 102.299 304.208 103.691 308.838 102.972C313.333 102.274 317.548 99.7526 321.26 95.6319C321.367 95.7424 321.476 95.8529 321.588 95.96C324.473 98.7548 328.438 99.9277 332.752 99.2563C336.78 98.6307 340.053 96.6281 342.642 94.2329C345.199 96.0909 348.486 96.8117 351.994 96.266C356.904 95.5027 360.768 92.7437 362.873 88.4989C363.18 87.8784 363.45 87.2307 363.683 86.5524C364.525 87.9838 365.488 89.0293 366.376 89.7807C368.313 91.4194 371.7 93.2061 376.824 92.4071C381.731 91.6438 386.12 89.1007 390.078 84.6961C390.392 84.9969 390.718 85.2825 391.058 85.5528C393.284 87.3259 397.138 89.2503 402.847 88.3646C406.503 87.7968 409.685 85.8435 412.394 83.2562C413.202 85.1346 414.261 86.923 415.637 88.4921C418.621 91.8971 422.63 93.7484 427.23 93.8453C434.417 94.0068 440.572 90.5099 444.591 84.0263C448.37 77.9285 449.586 70.3534 449.938 65.0716C449.976 64.5311 450.261 59.7015 449.179 56.463V56.4681ZM104.767 112.499L101.438 113.004L99.3822 105.839L99.2202 105.862L97.1642 113.652L93.8354 114.156L90.3446 97.6515L94.5393 97.0157L95.9471 105.179L96.1092 105.155L97.8951 96.5074L100.736 96.0756L102.522 104.181L102.684 104.156L104.092 95.5656L108.259 94.9333L104.769 112.497L104.767 112.499ZM118.921 110.352L109.747 111.744V94.7089L118.813 93.3336V97.4186L114.076 98.1377V100.297L118.595 99.6116V103.465L114.076 104.15V106.978L118.921 106.243V110.354V110.352ZM142.789 106.731L138.73 107.346V97.6345L138.568 97.6583L136.267 107.719L133.154 108.191L130.853 98.8279L130.691 98.8517V108.564L126.632 109.179V92.1436L132.097 91.314L134.614 99.9499L134.776 99.9243L137.32 90.5201L142.786 89.6906V106.726L142.789 106.731ZM153.181 105.153L152.558 102.088L149.175 102.602L148.552 105.857L144.249 106.51L148.471 88.8355L153.505 88.0722L157.618 104.482L153.181 105.155V105.153ZM166.496 103.134L163.52 95.2613L163.385 95.2817V103.606L159.082 104.259V87.2239L163.385 86.5711V93.7654L163.52 93.745L165.982 86.1767L170.582 85.478L167.741 93.5138V93.6158L171.34 102.396L166.496 103.13V103.134ZM182.3 100.735L173.126 102.128V85.0921L182.192 83.7169V87.8019L177.456 88.521V90.6799L181.975 89.9949V93.8487L177.456 94.5338V97.3608L182.3 96.6264V100.737V100.735ZM194.803 99.3515C191.935 99.7867 189.284 98.7497 189.419 94.1564L193.261 93.5733C193.207 95.2001 193.667 95.7985 194.641 95.6506C195.48 95.5231 195.804 95.0114 195.804 94.3689C195.804 93.983 195.75 93.3999 194.722 92.8372L192.72 91.7543C190.15 90.345 189.5 88.8253 189.5 86.77C189.5 83.892 192.152 81.6922 194.911 81.2723C197.59 80.866 200.296 81.8418 200.161 86.5133L196.319 87.0964C196.373 85.546 195.995 84.7556 194.992 84.9085C194.1 85.0445 193.748 85.5596 193.748 86.2022C193.748 86.6391 193.937 87.2273 194.83 87.7339L197.212 89.0684C199.756 90.5065 200.244 91.9481 200.244 93.5937C200.244 96.6519 197.754 98.9044 194.805 99.3515H194.803ZM209.796 96.5618L209.173 93.4968L205.791 94.0102L205.168 97.2656L200.865 97.9184L205.087 80.2438L210.12 79.4806L214.234 95.8903L209.796 96.5635V96.5618ZM224.409 94.3451L215.696 95.6676V78.6323L219.972 77.9829V90.906L224.409 90.2328V94.3451ZM233.854 92.912L233.231 89.847L229.848 90.3603L229.225 93.6158L224.922 94.2686L229.144 76.594L234.178 75.8307L238.291 92.2405L233.854 92.9137V92.912ZM250.497 84.1436C250.497 89.0769 248.224 90.7309 243.867 91.3922L239.753 92.0161V74.9808L243.867 74.3569C248.224 73.6956 250.497 74.6612 250.497 79.5945V84.1436ZM257.587 89.8249C254.719 90.26 252.067 89.2231 252.202 84.6298L256.044 84.0467C255.99 85.6735 256.449 86.2719 257.425 86.124C258.264 85.9965 258.588 85.4848 258.588 84.8422C258.588 84.4564 258.534 83.8733 257.506 83.3106L255.504 82.2277C252.933 80.8184 252.283 79.2987 252.283 77.2434C252.283 74.3654 254.935 72.1656 257.695 71.7457C260.374 71.3394 263.08 72.3152 262.945 76.9867L259.103 77.5698C259.157 76.0194 258.779 75.2289 257.776 75.3819C256.883 75.5179 256.532 76.033 256.532 76.6756C256.532 77.1125 256.721 77.7007 257.614 78.2073L259.996 79.5418C262.54 80.9799 263.027 82.4215 263.027 84.0654C263.027 87.1236 260.538 89.3761 257.589 89.8232L257.587 89.8249ZM265.327 90.0628L264.623 90.1699V81.9234L265.327 81.8163V90.0628ZM284.728 85.1924L280.345 85.8571L276.962 77.5834L276.8 77.6089V86.396L272.767 87.008V69.9726L277.34 69.2791L280.561 76.73L280.723 76.7062V68.7674L284.728 68.1588V85.1941V85.1924ZM298.611 77.8707C298.611 81.9812 295.824 84.0229 292.846 84.4751C289.868 84.9273 287.082 83.8087 287.082 79.6455V73.0173C287.082 68.9833 289.868 66.8651 292.846 66.4129C295.822 65.9607 298.611 67.234 298.611 71.2425V77.8707ZM310.437 68.2404L307.378 68.7045V81.7568L303.048 82.413V69.3607L299.882 69.8418V65.8587L310.435 64.2574V68.2404H310.437ZM322.398 79.9905C319.53 80.4257 316.878 79.3888 317.013 74.7955L320.855 74.2124C320.801 75.8392 321.262 76.4376 322.236 76.2897C323.075 76.1622 323.399 75.6505 323.399 75.0079C323.399 74.6221 323.345 74.0407 322.317 73.4763L320.315 72.3934C317.744 70.9841 317.094 69.4644 317.094 67.4091C317.094 64.5311 319.746 62.3313 322.506 61.9114C325.185 61.5051 327.891 62.4809 327.756 67.1524L323.914 67.7355C323.968 66.1851 323.59 65.3946 322.587 65.5476C321.694 65.6836 321.343 66.1987 321.343 66.8413C321.343 67.2782 321.532 67.8664 322.425 68.373L324.807 69.7075C327.351 71.1456 327.838 72.5872 327.838 74.2328C327.838 77.291 325.349 79.5435 322.4 79.9905H322.398ZM334.17 77.6905L329.84 78.3467V61.3113L334.17 60.6551V77.6905ZM334.197 59.5468L329.813 60.2114V59.5689L334.197 58.9042V59.5468ZM347.62 69.4066C347.62 74.3399 345.346 75.9939 340.99 76.6552L336.876 77.2791V60.2437L340.99 59.6199C345.346 58.9586 347.62 59.9241 347.62 64.8575V69.4066ZM359.094 73.9081L349.919 75.3003V58.265L358.985 56.8897V60.9747L354.251 61.6938V63.8528L358.769 63.1677V67.0215L354.251 67.7066V70.5336L359.095 69.7993V73.9098L359.094 73.9081ZM366.183 73.3454C363.315 73.7806 360.663 72.7436 360.798 68.1503L364.64 67.5672C364.586 69.1941 365.045 69.7924 366.021 69.6446C366.86 69.5171 367.184 69.0054 367.184 68.3628C367.184 67.9769 367.13 67.3955 366.102 66.8311L364.1 65.7482C361.529 64.339 360.879 62.8192 360.879 60.7639C360.879 57.8859 363.531 55.6861 366.291 55.2662C368.97 54.86 371.676 55.8357 371.541 60.5072L367.699 61.0903C367.753 59.54 367.375 58.7495 366.372 58.9025C365.479 59.0385 365.128 59.5536 365.128 60.1961C365.128 60.633 365.317 61.2212 366.21 61.7278L368.592 63.0623C371.136 64.5005 371.624 65.942 371.624 67.5876C371.624 70.6458 369.134 72.8983 366.185 73.3454H366.183ZM373.599 71.7066L372.841 71.8222V70.7937L373.599 70.6781V71.7066Z" fill="#3BFF29"/>
<path d="M292.846 70.6254C292.061 70.7444 291.411 71.3054 291.411 72.4614V78.911C291.411 80.0415 292.061 80.4053 292.846 80.2863C293.631 80.1673 294.281 79.6063 294.281 78.4759V72.0262C294.281 70.8702 293.631 70.5064 292.846 70.6254Z" fill="#3BFF29"/>
<path d="M244.676 78.3721L244.08 78.4622V87.2239L244.676 87.1338C245.677 86.9825 246.137 86.5014 246.137 85.3454V79.7185C246.137 78.537 245.677 78.2209 244.676 78.3738V78.3721Z" fill="#3BFF29"/>
</svg>
