<svg width="424" height="151" viewBox="0 0 424 151" fill="none" xmlns="http://www.w3.org/2000/svg">
    <path
        d="M423.452 49.8984C423.049 48.7126 421.462 48.6802 420.752 49.8465C419.223 52.367 417.402 55.0429 415.007 55.03C409.204 54.9976 408.429 44.0087 411.305 36.7778L420.785 8.44388C422.984 2.8069 421.67 -0.432747 418.56 0.0467199C415.892 0.454915 412.639 2.53476 409.438 11.5863C405.814 21.7199 405.925 26.8191 404.5 27.0394C402.19 27.3958 402.45 22.8927 395.339 23.9812C384.298 25.6788 377.46 36.9139 374.616 48.1878C372.899 51.2396 371.253 53.4425 368.585 53.8507C365.651 54.3043 364.291 53.0214 364.219 49.8724C364.122 45.2397 366.907 41.8316 366.802 36.9203C366.705 32.2877 364.044 28.7888 358.624 29.6182C354.714 30.2208 351.2 32.7153 347.98 36.5575C345.195 39.9591 343.399 39.1233 343.321 35.5079C343.282 33.6548 342.716 32.0674 340.315 32.4367C337.03 32.9421 332.794 43.7301 330.088 55.0235C328.37 58.2631 326.184 60.3689 323.165 60.8289C319.255 61.4315 318.201 57.8744 321.076 50.6435C322.918 44.9676 325.169 41.7409 325.097 38.2162C325.052 36.1752 324.225 34.9118 321.916 35.2616C317.739 35.9031 317.192 39.5185 314.258 39.9721C311.948 40.3284 312.228 36.7519 305.117 37.8404C293.88 39.5639 286.997 51.1748 284.244 62.3191C282.468 65.4098 280.328 67.4119 277.302 67.8719C271.967 68.6883 272.572 63.2975 273.971 57.6929C275.851 49.5938 279.137 40.5293 283.815 29.4951C286.45 23.2296 285.142 20.5472 281.499 21.1109C274.303 22.2188 270.51 37.0305 262.097 65.4746C260.379 68.5263 258.551 70.8524 255.89 71.3578C254.615 65.7856 249.748 59.0989 249.709 57.3366C249.631 53.6304 256.111 52.354 255.962 49.3994C255.988 46.419 253.294 43.7689 247.744 44.3391C239.28 45.2138 231.199 59.7598 231.192 59.7598C229.475 62.8116 221.479 78.9644 218.212 76.6708C215.057 74.4613 220.093 65.818 219.793 59.5071C219.579 54.8744 217.035 51.3756 211.615 52.205C207.705 52.8076 204.191 55.3021 200.971 59.1443C198.186 62.5459 196.39 61.7101 196.312 58.0947C196.273 56.2416 195.707 54.6542 193.306 55.0235C190.021 55.5289 185.785 66.3169 183.079 77.6103C179.214 84.6209 172.083 88.9685 166.039 89.9015C160.97 90.679 156.761 89.6553 156.689 86.4091C156.663 85.204 157.548 84.7893 158.179 85.0614C160.248 85.9491 162.655 85.8649 165.141 85.4826C173.853 84.1414 179.292 75.6859 179.149 68.9151C179.019 62.7986 175.258 57.7966 166.995 59.0665C155.154 60.8872 147.437 72.0899 145.056 83.1954C144.984 83.2861 144.919 83.3833 144.861 83.487C140.996 90.4976 133.865 94.8452 127.821 95.7782C122.753 96.5557 118.543 95.532 118.471 92.2858C118.445 91.0807 119.33 90.666 119.961 90.9382C122.03 91.8258 124.438 91.7416 126.923 91.3593C135.635 90.0181 141.074 81.5626 140.931 74.7918C140.801 68.6753 137.04 63.6733 128.777 64.9433C116.936 66.7639 109.213 77.9666 106.838 89.0721C106.773 89.1628 106.702 89.2535 106.643 89.3637C104.925 92.4154 103.273 94.6249 100.612 95.0331C96.6104 95.6486 95.0619 93.9316 95.0033 91.3399C94.8797 85.5927 98.6208 81.1156 98.5102 75.8285C98.4061 70.82 89.7462 66.2002 81.3922 67.4831C76.5906 68.2218 73.5782 73.2432 73.6563 77.0401C73.7148 79.7743 74.5151 80.9536 75.7838 81.5043C76.2913 81.7246 76.5255 82.3272 76.3368 82.9233C75.7513 84.7958 74.4761 88.6704 73.3765 92.0137C72.1208 95.8365 65.7902 94.7804 65.9073 90.7956C66.0179 86.9728 67.3712 81.3423 69.2971 74.2929C71.8801 64.8266 59.8565 64.0038 58.334 70.6969C56.6294 78.174 55.4452 83.9859 53.7731 88.1521C46.883 105.316 36.987 101.921 37.6116 89.6358C38.3793 74.3965 52.8492 46.419 81.8542 59.8311C84.3135 60.965 87.1372 63.0513 89.525 62.0924C95.6865 59.6238 93.598 50.7925 78.536 46.892C46.6097 38.6179 11.3653 70.2304 18.3791 102.426C21.1833 115.313 37.7807 124.384 51.1641 103.981C52.0555 102.627 53.5519 103.443 52.9403 104.791C48.49 114.639 42.3221 129.574 25.3928 128.181C17.5593 127.54 13.8442 122.201 13.6815 115.527C13.6685 114.866 12.9723 114.426 12.1395 114.523C4.61831 115.436 -0.183316 122.654 0.00536593 130.533C0.220073 139.494 5.39255 148.254 17.1559 150.12C36.6486 153.211 53.4934 137.887 59.8044 118.754C60.9495 115.281 62.0816 111.704 63.1487 108.089C71.6719 108.931 75.979 101.966 77.5405 97.1648C77.5405 97.1648 80.5204 86.8368 81.6264 83.7526C81.7696 83.3444 82.1079 82.8261 82.726 83.0399C84.7559 83.7462 86.0637 85.5215 86.0767 86.3832C86.1678 90.8345 80.13 100.502 80.3122 109.126C80.4098 113.855 83.0058 118.475 90.2928 117.354C96.4412 116.408 100.924 110.985 104.203 105.173C105.055 103.663 107.046 103.56 107.651 105.011C109.883 110.331 114.509 113.629 121.842 112.501C129.168 111.374 135.96 106.294 141.972 97.5989C142.948 96.1864 144.88 96.2836 145.368 97.7803C147.359 103.884 152.122 107.849 160.059 106.631C166.182 105.692 171.933 101.985 177.164 95.7134C178.388 94.2491 180.502 94.8257 180.541 96.6464V96.6982C180.626 100.592 182.994 103.113 187.171 102.465C193.306 101.525 194.354 96.2447 194.256 91.5213L194.172 87.3486C193.983 78.4979 198.928 69.5047 204.575 69.8805C205.232 69.9258 205.864 70.172 206.267 70.6709C208.648 73.5996 203.326 81.7505 203.502 90.2837C203.612 95.4737 205.662 99.6204 211.257 98.7651C216.918 97.8969 220.737 92.2146 224.621 85.8001C224.621 85.8001 236.326 65.2478 238.473 61.4768C239.247 60.1486 239.956 60.0384 240.607 61.1464C241.902 63.4595 242.663 65.6625 242.708 67.8913C242.787 71.6882 241.316 78.9774 237.49 80.338C235.467 81.0572 233.606 79.6318 232.825 77.6297C232.624 77.1178 231.902 77.2021 231.674 77.7528L230.646 80.2733C227.568 87.8346 232.513 94.3787 240.106 94.2361C251.102 94.0288 255.279 86.8173 259.397 80.6361C259.391 81.0248 259.391 81.4136 259.397 81.7894C259.514 87.2579 261.733 91.0094 268.037 90.0375C273.307 89.2276 277.348 85.1327 280.464 80.3186C281.408 78.8608 283.386 78.9385 283.893 80.4482C285.305 84.6468 288.135 86.9534 292.299 86.312C298.61 85.3401 303.815 78.4979 307.212 70.4442L307.569 70.3923C306.665 78.2517 309.365 83.6943 315.494 82.7483C320.79 81.9319 324.557 77.1762 327.563 71.5068C327.524 72.4463 327.511 73.321 327.524 74.1114C327.609 78.0055 329.977 80.5259 334.154 79.878C340.289 78.9385 341.337 73.6579 341.239 68.9345L341.155 64.7618C340.966 55.9111 345.911 46.9114 351.558 47.2937C352.215 47.339 352.847 47.5852 353.25 48.0842C355.631 51.0128 350.309 59.1637 350.485 67.697C350.595 72.8869 352.645 77.0336 358.24 76.1783C365.033 75.1352 369.795 68.617 373.146 62.1572C373.68 68.7855 376.933 73.308 383.478 72.3037C388.898 71.4679 393.927 64.6517 397.414 56.585L397.772 56.5331C396.959 64.3796 398.358 77.2863 408.228 77.4936C418.501 77.7075 423.056 67.2823 423.843 55.7427C423.927 54.4857 423.934 51.4275 423.42 49.9113L423.452 49.8984ZM163.937 69.6796C166.689 69.2585 168.062 70.8135 168.108 72.8545C168.153 75.1741 166.175 78.3619 162.707 78.8932C159.864 79.3273 158.491 77.7722 158.452 75.7378C158.4 73.2367 160.476 70.2174 163.944 69.6861L163.937 69.6796ZM125.719 75.5499C128.472 75.1287 129.844 76.6837 129.89 78.7247C129.935 81.0443 127.958 84.2321 124.49 84.7634C121.646 85.1975 120.274 83.6425 120.235 81.608C120.183 79.107 122.258 76.0876 125.726 75.5563L125.719 75.5499ZM300.816 65.7532C298.064 66.1743 296.333 64.5804 296.268 61.4315C296.183 57.356 299.02 52.3605 303.64 51.6478C306.483 51.2136 308.298 52.7946 308.363 55.8528C308.448 59.7469 305.435 65.0405 300.816 65.7532ZM391.207 51.8616C387.831 52.3799 386.536 50.2547 386.484 47.5658C386.399 43.4839 389.236 38.4948 393.589 37.8274C397.057 37.2961 398.52 39.2982 398.579 41.9871C398.664 45.8812 395.651 51.1748 391.207 51.8616Z"
        fill="#15FF00" />
</svg>