<svg width="278" height="278" viewBox="0 0 278 278" fill="none" xmlns="http://www.w3.org/2000/svg">
<path d="M278 139C278 215.768 215.768 278 139 278C62.2324 278 0 215.768 0 139C0 62.2324 62.2324 0 139 0C215.768 0 278 62.2324 278 139Z" fill="#15FF00"/>
<path d="M248.775 125.189C248.566 124.567 247.742 124.55 247.374 125.162C246.58 126.485 245.635 127.889 244.392 127.883C241.38 127.866 240.978 122.098 242.471 118.303L247.391 103.432C248.532 100.473 247.85 98.7729 246.236 99.0245C244.851 99.2388 243.163 100.33 241.501 105.081C239.621 110.4 239.678 113.076 238.938 113.192C237.74 113.379 237.875 111.015 234.184 111.587C228.453 112.478 224.904 118.374 223.429 124.292C222.537 125.893 221.683 127.05 220.298 127.264C218.776 127.502 218.07 126.828 218.033 125.176C217.982 122.744 219.427 120.955 219.373 118.378C219.323 115.946 217.941 114.11 215.129 114.545C213.099 114.861 211.276 116.171 209.604 118.187C208.159 119.973 207.227 119.534 207.186 117.636C207.166 116.664 206.872 115.831 205.626 116.025C203.921 116.29 201.723 121.952 200.318 127.879C199.426 129.58 198.292 130.685 196.725 130.926C194.696 131.243 194.149 129.376 195.641 125.58C196.597 122.601 197.765 120.908 197.728 119.058C197.704 117.987 197.275 117.324 196.077 117.507C193.909 117.844 193.625 119.741 192.102 119.979C190.903 120.167 191.049 118.289 187.358 118.861C181.526 119.765 177.953 125.859 176.525 131.708C175.603 133.331 174.492 134.381 172.922 134.623C170.153 135.051 170.467 132.222 171.193 129.28C172.169 125.03 173.874 120.272 176.302 114.481C177.67 111.192 176.991 109.784 175.1 110.08C171.365 110.662 169.397 118.436 165.03 133.365C164.139 134.966 163.19 136.187 161.809 136.452C161.147 133.528 158.621 130.018 158.601 129.093C158.56 127.148 161.924 126.478 161.846 124.927C161.86 123.363 160.462 121.972 157.581 122.272C153.188 122.731 148.994 130.365 148.991 130.365C148.099 131.967 143.949 140.445 142.254 139.241C140.616 138.081 143.23 133.545 143.074 130.233C142.963 127.801 141.643 125.965 138.83 126.4C136.8 126.716 134.977 128.026 133.305 130.042C131.86 131.827 130.928 131.389 130.888 129.491C130.867 128.519 130.574 127.685 129.327 127.879C127.622 128.145 125.424 133.807 124.019 139.734C122.013 143.414 118.312 145.695 115.175 146.185C112.545 146.593 110.36 146.056 110.323 144.352C110.309 143.72 110.769 143.502 111.096 143.645C112.17 144.111 113.419 144.066 114.709 143.866C119.231 143.162 122.054 138.724 121.98 135.17C121.912 131.96 119.96 129.335 115.672 130.001C109.526 130.957 105.521 136.837 104.285 142.665C104.248 142.713 104.214 142.764 104.184 142.818C102.178 146.498 98.4771 148.78 95.34 149.27C92.7095 149.678 90.5247 149.14 90.4875 147.437C90.474 146.804 90.9333 146.586 91.2608 146.729C92.3347 147.195 93.5841 147.151 94.874 146.95C99.3956 146.246 102.219 141.808 102.144 138.255C102.077 135.045 100.125 132.419 95.8364 133.086C89.6906 134.041 85.6824 139.921 84.4498 145.75C84.4161 145.797 84.3789 145.845 84.3485 145.903C83.4571 147.505 82.5993 148.664 81.2182 148.878C79.1415 149.202 78.3378 148.3 78.3074 146.94C78.2433 143.924 80.1849 141.574 80.1275 138.799C80.0735 136.17 75.579 133.745 71.2432 134.419C68.7511 134.806 67.1876 137.442 67.2282 139.435C67.2585 140.87 67.6739 141.489 68.3324 141.778C68.5958 141.893 68.7173 142.21 68.6194 142.523C68.3155 143.505 67.6536 145.539 67.083 147.294C66.4312 149.3 63.1456 148.746 63.2064 146.654C63.2638 144.648 63.9662 141.693 64.9657 137.993C66.3063 133.024 60.066 132.593 59.2758 136.106C58.3911 140.03 57.7765 143.08 56.9087 145.267C53.3326 154.275 48.1965 152.493 48.5207 146.046C48.9191 138.047 56.4292 123.363 71.4829 130.403C72.7594 130.998 74.2249 132.093 75.4642 131.589C78.662 130.294 77.578 125.659 69.7608 123.611C53.1908 119.269 34.8987 135.861 38.5389 152.759C39.9943 159.523 48.6085 164.284 55.5546 153.575C56.0172 152.864 56.7938 153.293 56.4764 154C54.1667 159.169 50.9655 167.007 42.1791 166.276C38.1134 165.94 36.1852 163.138 36.1008 159.635C36.0941 159.288 35.7327 159.057 35.3005 159.108C31.3969 159.587 28.9049 163.376 29.0028 167.511C29.1142 172.214 31.7988 176.812 37.904 177.791C48.0209 179.413 56.7635 171.371 60.039 161.328C60.6333 159.506 61.2208 157.628 61.7746 155.731C66.1982 156.173 68.4337 152.517 69.2441 149.997C69.2441 149.997 70.7907 144.577 71.3647 142.958C71.439 142.744 71.6146 142.472 71.9354 142.584C72.989 142.954 73.6677 143.886 73.6745 144.339C73.7217 146.675 70.5881 151.749 70.6826 156.275C70.7333 158.757 72.0806 161.182 75.8626 160.594C79.0537 160.097 81.3803 157.251 83.0822 154.201C83.5246 153.408 84.5579 153.354 84.8719 154.116C86.0302 156.907 88.4311 158.638 92.2367 158.047C96.039 157.455 99.5644 154.789 102.685 150.225C103.191 149.484 104.194 149.535 104.447 150.32C105.481 153.524 107.952 155.605 112.072 154.966C115.25 154.473 118.235 152.527 120.95 149.236C121.584 148.467 122.682 148.77 122.702 149.725V149.752C122.746 151.796 123.975 153.119 126.143 152.779C129.328 152.286 129.871 149.514 129.821 147.035L129.777 144.845C129.679 140.2 132.245 135.48 135.176 135.677C135.517 135.701 135.845 135.83 136.054 136.092C137.29 137.629 134.528 141.907 134.619 146.386C134.676 149.11 135.74 151.286 138.644 150.837C141.582 150.382 143.564 147.399 145.58 144.033C145.58 144.033 151.655 133.246 152.769 131.266C153.171 130.569 153.539 130.511 153.877 131.093C154.549 132.307 154.944 133.463 154.968 134.633C155.008 136.626 154.245 140.452 152.259 141.166C151.209 141.543 150.243 140.795 149.838 139.744C149.733 139.476 149.359 139.52 149.24 139.809L148.707 141.132C147.11 145.1 149.676 148.535 153.617 148.46C159.324 148.351 161.492 144.566 163.629 141.322C163.626 141.526 163.626 141.73 163.629 141.927C163.69 144.798 164.841 146.767 168.113 146.257C170.849 145.831 172.946 143.682 174.563 141.156C175.053 140.39 176.079 140.431 176.343 141.224C177.075 143.427 178.544 144.638 180.706 144.301C183.981 143.791 186.682 140.2 188.445 135.973L188.631 135.946C188.161 140.071 189.563 142.927 192.744 142.431C195.493 142.002 197.448 139.506 199.008 136.531C198.987 137.024 198.981 137.483 198.988 137.898C199.031 139.941 200.261 141.264 202.428 140.924C205.613 140.431 206.156 137.66 206.106 135.181L206.062 132.99C205.964 128.345 208.53 123.622 211.461 123.822C211.802 123.846 212.13 123.975 212.339 124.237C213.575 125.774 210.813 130.052 210.904 134.531C210.962 137.255 212.025 139.431 214.929 138.982C218.455 138.435 220.927 135.014 222.666 131.623C222.943 135.102 224.631 137.476 228.028 136.949C230.841 136.51 233.451 132.933 235.261 128.699L235.447 128.672C235.025 132.79 235.751 139.564 240.873 139.673C246.205 139.785 248.569 134.313 248.978 128.257C249.022 127.597 249.025 125.992 248.758 125.196L248.775 125.189ZM114.085 135.572C115.513 135.351 116.226 136.167 116.249 137.238C116.273 138.455 115.246 140.129 113.446 140.407C111.971 140.635 111.258 139.819 111.238 138.751C111.211 137.439 112.288 135.854 114.088 135.575L114.085 135.572ZM94.2493 138.653C95.6777 138.432 96.3902 139.248 96.4138 140.319C96.4375 141.536 95.4109 143.21 93.6111 143.488C92.1354 143.716 91.4229 142.9 91.4027 141.832C91.3756 140.52 92.4528 138.935 94.2527 138.656L94.2493 138.653ZM185.126 133.511C183.697 133.732 182.799 132.895 182.765 131.243C182.721 129.104 184.194 126.482 186.591 126.108C188.067 125.88 189.009 126.709 189.043 128.315C189.087 130.358 187.523 133.137 185.126 133.511ZM232.04 126.22C230.287 126.492 229.615 125.376 229.588 123.965C229.544 121.823 231.016 119.204 233.276 118.854C235.075 118.575 235.835 119.626 235.866 121.037C235.909 123.081 234.346 125.859 232.04 126.22Z" fill="#0D2D23"/>
</svg>
