<svg xmlns="http://www.w3.org/2000/svg" viewBox="0 0 442.5 569.34">
    <title>Asset 1</title>
    <path
        d="M431.8,365.4c9,9.12,14.23,24.28,8,35.67-5,9-15.65,12.9-25.49,12.57s-8.74,1.14-18.21-1.67c-13.48-4-28.52-6-41,.75S335.34,438.09,343.75,450c6.77,9.56,21.09,12.17,24.85,23.45,3.35,10-4.67,21.09-14.23,24.26s-19.88.72-29.63-1.72-20.09-4.85-29.63-1.62-17.48,14.36-14,24.36c2.89,8.36,12.51,13.42,13.1,22.3.42,6.43-4.52,12.15-10.19,14.46s-11.93,2-18,1.78c-10.93-.4-22.17-.33-32.38,3.84a36.68,36.68,0,0,0-12.35,8.26,36.81,36.81,0,0,0-12.36-8.26c-10.21-4.17-21.45-4.24-32.38-3.84-6.07.22-12.34.52-18-1.78s-10.6-8-10.18-14.46c.58-8.88,10.21-13.94,13.1-22.3,3.45-10-4.48-21.13-14-24.36s-19.88-.82-29.63,1.62-20.07,4.89-29.63,1.72S70.56,483.46,73.9,473.42C77.66,462.14,92,459.53,98.75,450c8.41-11.88,1.09-30.45-11.34-37.25s-27.49-4.75-41-.75c-9.47,2.81-8.39,1.34-18.22,1.67S7.7,410.09,2.74,401.07c-6.26-11.39-1-26.55,8-35.67S21.08,356.51,31.86,350s21.32-15.87,23.91-28.77c2.73-13.62-4.5-27.84-15-36.16-.16-.14-.34-.26-.51-.39l.51-.39c10.51-8.33,17.74-22.55,15-36.17-2.59-12.89-13.12-22.24-23.91-28.76s-12.19-6.29-21.16-15.41-14.22-24.29-8-35.68c5-9,15.65-12.89,25.48-12.56s8.75-1.15,18.22,1.67c13.48,4,28.52,6,41-.76s19.75-25.36,11.34-37.24C92,109.8,77.66,107.19,73.9,95.91c-3.34-10,4.67-21.08,14.24-24.26s19.88-.72,29.63,1.72S137.85,78.23,147.4,75s17.48-14.37,14-24.37c-2.89-8.35-12.52-13.42-13.1-22.29-.42-6.43,4.52-12.16,10.18-14.46s11.94-2,18-1.78c10.93.39,22.17.33,32.38-3.84A37,37,0,0,0,221.26,0a36.82,36.82,0,0,0,12.35,8.26c10.21,4.17,21.45,4.23,32.38,3.84,6.07-.22,12.34-.52,18,1.78s10.61,8,10.19,14.46c-.59,8.87-10.21,13.94-13.1,22.29-3.45,10,4.48,21.13,14,24.37s19.87.81,29.63-1.63,20.06-4.89,29.63-1.72S372,85.88,368.6,95.91c-3.76,11.28-18.08,13.89-24.85,23.46-8.41,11.88-1.09,30.45,11.35,37.24s27.49,4.75,41,.76c9.47-2.82,8.38-1.34,18.21-1.67s20.53,3.54,25.49,12.56c6.26,11.39,1,26.56-8,35.68s-10.37,8.88-21.15,15.41-21.33,15.87-23.92,28.76c-2.72,13.62,4.51,27.84,15,36.17l.52.39c-.17.13-.35.25-.52.39-10.5,8.32-17.73,22.54-15,36.16,2.59,12.9,13.13,22.24,23.92,28.77S422.84,356.28,431.8,365.4Z"
        fill="#fff" />
</svg>